#N canvas 827 239 527 327 12;
#X obj 213 292 netsend -u;
#X msg 65 48 connect localhost 4000;
#X msg 281 157 list coucou 1 2 3;
#X floatatom 213 97 12 0 0 0 - - - 16;
#X msg 310 201 symbol Halli!;
#X connect 1 0 0 0;
#X connect 2 0 0 0;
#X connect 3 0 0 0;
#X connect 4 0 0 0;
